<svg xmlns="http://www.w3.org/2000/svg" width="960" height="720" viewBox="0 0 320 200" preserveAspectRatio="none"><image href="layout.png" width="320" height="200" opacity=".5"/><path d="M0 72H320" stroke="#76a6f5" stroke-width=".5" stroke-dasharray="2 2"/><path d="M8.558273315429688,124.49406385421753L386.21959686279297,153.96569669246674" fill="none" stroke="#e5bc6a" stroke-width=".5"/><path d="M8.558273315429688,124.49406385421753L8.558273315429688,9.66331958770752" fill="none" stroke="#e5bc6a" stroke-width=".5"/><path d="M386.21959686279297,153.96569669246674L386.21959686279297,-25.33423900604248" fill="none" stroke="#e5bc6a" stroke-width=".5"/><path d="M8.558273315429688,9.66331958770752L386.21959686279297,-25.33423900604248" fill="none" stroke="#e5bc6a" stroke-width=".5"/><path d="M8.827407956123352,124.45281744003296L386.17652893066406,153.86517941951752" fill="none" stroke="#e5bc6a" stroke-width=".5"/><path d="M8.827407956123352,124.45281744003296L8.827407956123352,9.712302684783936" fill="none" stroke="#e5bc6a" stroke-width=".5"/><path d="M386.17652893066406,153.86517941951752L386.17652893066406,-25.21488666534424" fill="none" stroke="#e5bc6a" stroke-width=".5"/><path d="M8.827407956123352,9.712302684783936L386.17652893066406,-25.21488666534424" fill="none" stroke="#e5bc6a" stroke-width=".5"/><path d="M8.558273315429688,124.49406385421753L8.827407956123352,124.45281744003296" fill="none" stroke="#e5bc6a" stroke-width=".5"/><path d="M386.21959686279297,153.96569669246674L386.17652893066406,153.86517941951752" fill="none" stroke="#e5bc6a" stroke-width=".5"/><path d="M8.558273315429688,9.66331958770752L8.827407956123352,9.712302684783936" fill="none" stroke="#e5bc6a" stroke-width=".5"/><path d="M386.21959686279297,-25.33423900604248L386.17652893066406,-25.21488666534424" fill="none" stroke="#e5bc6a" stroke-width=".5"/><path d="M23.841702938079834,107.44614005088806L86.92365646362305,110.69633960723877" fill="none" stroke="#e5bc6a" stroke-width=".5"/><path d="M23.841702938079834,107.44614005088806L23.841702938079834,20.267808437347412" fill="none" stroke="#e5bc6a" stroke-width=".5"/><path d="M86.92365646362305,110.69633960723877L86.92365646362305,15.52426815032959" fill="none" stroke="#e5bc6a" stroke-width=".5"/><path d="M23.841702938079834,20.267808437347412L86.92365646362305,15.52426815032959" fill="none" stroke="#e5bc6a" stroke-width=".5"/><path d="M26.37671709060669,107.17155933380127L89.15605545043945,110.36933064460754" fill="none" stroke="#e5bc6a" stroke-width=".5"/><path d="M26.37671709060669,107.17155933380127L26.37671709060669,20.66854238510132" fill="none" stroke="#e5bc6a" stroke-width=".5"/><path d="M89.15605545043945,110.36933064460754L89.15605545043945,16.001522541046143" fill="none" stroke="#e5bc6a" stroke-width=".5"/><path d="M26.37671709060669,20.66854238510132L89.15605545043945,16.001522541046143" fill="none" stroke="#e5bc6a" stroke-width=".5"/><path d="M23.841702938079834,107.44614005088806L26.37671709060669,107.17155933380127" fill="none" stroke="#e5bc6a" stroke-width=".5"/><path d="M86.92365646362305,110.69633960723877L89.15605545043945,110.36933064460754" fill="none" stroke="#e5bc6a" stroke-width=".5"/><path d="M23.841702938079834,20.267808437347412L26.37671709060669,20.66854238510132" fill="none" stroke="#e5bc6a" stroke-width=".5"/><path d="M86.92365646362305,15.52426815032959L89.15605545043945,16.001522541046143" fill="none" stroke="#e5bc6a" stroke-width=".5"/><path d="M133.28730583190918,133.7009310722351L195.01266479492188,138.4770393371582" fill="none" stroke="#e5bc6a" stroke-width=".5"/><path d="M133.28730583190918,133.7009310722351L133.28730583190918,77.78446674346924" fill="none" stroke="#e5bc6a" stroke-width=".5"/><path d="M195.01266479492188,138.4770393371582L195.01266479492188,78.23222875595093" fill="none" stroke="#e5bc6a" stroke-width=".5"/><path d="M133.28730583190918,77.78446674346924L195.01266479492188,78.23222875595093" fill="none" stroke="#e5bc6a" stroke-width=".5"/><path d="M138.7818431854248,132.1444034576416L199.24659729003906,136.6737425327301" fill="none" stroke="#e5bc6a" stroke-width=".5"/><path d="M138.7818431854248,132.1444034576416L138.7818431854248,77.63854265213013" fill="none" stroke="#e5bc6a" stroke-width=".5"/><path d="M199.24659729003906,136.6737425327301L199.24659729003906,78.06316614151001" fill="none" stroke="#e5bc6a" stroke-width=".5"/><path d="M138.7818431854248,77.63854265213013L199.24659729003906,78.06316614151001" fill="none" stroke="#e5bc6a" stroke-width=".5"/><path d="M133.28730583190918,133.7009310722351L138.7818431854248,132.1444034576416" fill="none" stroke="#e5bc6a" stroke-width=".5"/><path d="M195.01266479492188,138.4770393371582L199.24659729003906,136.6737425327301" fill="none" stroke="#e5bc6a" stroke-width=".5"/><path d="M133.28730583190918,77.78446674346924L138.7818431854248,77.63854265213013" fill="none" stroke="#e5bc6a" stroke-width=".5"/><path d="M195.01266479492188,78.23222875595093L199.24659729003906,78.06316614151001" fill="none" stroke="#e5bc6a" stroke-width=".5"/><path d="M76.12422943115234,165.48977494239807L116.97256088256836,170.6487238407135" fill="none" stroke="#e5bc6a" stroke-width=".5"/><path d="M76.12422943115234,165.48977494239807L76.12422943115234,79.79081869125366" fill="none" stroke="#e5bc6a" stroke-width=".5"/><path d="M116.97256088256836,170.6487238407135L116.97256088256836,80.2207350730896" fill="none" stroke="#e5bc6a" stroke-width=".5"/><path d="M76.12422943115234,79.79081869125366L116.97256088256836,80.2207350730896" fill="none" stroke="#e5bc6a" stroke-width=".5"/><path d="M103.8272476196289,156.0707002878189L141.72411918640137,160.2194368839264" fill="none" stroke="#e5bc6a" stroke-width=".5"/><path d="M103.8272476196289,156.0707002878189L103.8272476196289,79.0058970451355" fill="none" stroke="#e5bc6a" stroke-width=".5"/><path d="M141.72411918640137,160.2194368839264L141.72411918640137,79.35162782669067" fill="none" stroke="#e5bc6a" stroke-width=".5"/><path d="M103.8272476196289,79.0058970451355L141.72411918640137,79.35162782669067" fill="none" stroke="#e5bc6a" stroke-width=".5"/><path d="M76.12422943115234,165.48977494239807L103.8272476196289,156.0707002878189" fill="none" stroke="#e5bc6a" stroke-width=".5"/><path d="M116.97256088256836,170.6487238407135L141.72411918640137,160.2194368839264" fill="none" stroke="#e5bc6a" stroke-width=".5"/><path d="M76.12422943115234,79.79081869125366L103.8272476196289,79.0058970451355" fill="none" stroke="#e5bc6a" stroke-width=".5"/><path d="M116.97256088256836,80.2207350730896L141.72411918640137,79.35162782669067" fill="none" stroke="#e5bc6a" stroke-width=".5"/><path d="M211.48963928222656,146.0127353668213L259.80770111083984,150.09690821170807" fill="none" stroke="#e5bc6a" stroke-width=".5"/><path d="M211.48963928222656,146.0127353668213L211.48963928222656,105.11096119880676" fill="none" stroke="#e5bc6a" stroke-width=".5"/><path d="M259.80770111083984,150.09690821170807L259.80770111083984,106.93809390068054" fill="none" stroke="#e5bc6a" stroke-width=".5"/><path d="M211.48963928222656,105.11096119880676L259.80770111083984,106.93809390068054" fill="none" stroke="#e5bc6a" stroke-width=".5"/><path d="M220.19712448120117,141.39633178710938L265.7950210571289,144.97459530830383" fill="none" stroke="#e5bc6a" stroke-width=".5"/><path d="M220.19712448120117,141.39633178710938L220.19712448120117,103.04572582244873" fill="none" stroke="#e5bc6a" stroke-width=".5"/><path d="M265.7950210571289,144.97459530830383L265.7950210571289,104.64653372764587" fill="none" stroke="#e5bc6a" stroke-width=".5"/><path d="M220.19712448120117,103.04572582244873L265.7950210571289,104.64653372764587" fill="none" stroke="#e5bc6a" stroke-width=".5"/><path d="M211.48963928222656,146.0127353668213L220.19712448120117,141.39633178710938" fill="none" stroke="#e5bc6a" stroke-width=".5"/><path d="M259.80770111083984,150.09690821170807L265.7950210571289,144.97459530830383" fill="none" stroke="#e5bc6a" stroke-width=".5"/><path d="M211.48963928222656,105.11096119880676L220.19712448120117,103.04572582244873" fill="none" stroke="#e5bc6a" stroke-width=".5"/><path d="M259.80770111083984,106.93809390068054L265.7950210571289,104.64653372764587" fill="none" stroke="#e5bc6a" stroke-width=".5"/><path d="M272.49711990356445,143.51094365119934L312.33232498168945,146.55237197875977" fill="none" stroke="#e5bc6a" stroke-width=".5"/><path d="M272.49711990356445,143.51094365119934L272.49711990356445,45.55076360702515" fill="none" stroke="#e5bc6a" stroke-width=".5"/><path d="M312.33232498168945,146.55237197875977L312.33232498168945,44.4258451461792" fill="none" stroke="#e5bc6a" stroke-width=".5"/><path d="M272.49711990356445,45.55076360702515L312.33232498168945,44.4258451461792" fill="none" stroke="#e5bc6a" stroke-width=".5"/><path d="M273.3301544189453,142.75302290916443L312.7604293823242,145.7289755344391" fill="none" stroke="#e5bc6a" stroke-width=".5"/><path d="M273.3301544189453,142.75302290916443L273.3301544189453,45.83108425140381" fill="none" stroke="#e5bc6a" stroke-width=".5"/><path d="M312.7604293823242,145.7289755344391L312.7604293823242,44.73038911819458" fill="none" stroke="#e5bc6a" stroke-width=".5"/><path d="M273.3301544189453,45.83108425140381L312.7604293823242,44.73038911819458" fill="none" stroke="#e5bc6a" stroke-width=".5"/><path d="M272.49711990356445,143.51094365119934L273.3301544189453,142.75302290916443" fill="none" stroke="#e5bc6a" stroke-width=".5"/><path d="M312.33232498168945,146.55237197875977L312.7604293823242,145.7289755344391" fill="none" stroke="#e5bc6a" stroke-width=".5"/><path d="M272.49711990356445,45.55076360702515L273.3301544189453,45.83108425140381" fill="none" stroke="#e5bc6a" stroke-width=".5"/><path d="M312.33232498168945,44.4258451461792L312.7604293823242,44.73038911819458" fill="none" stroke="#e5bc6a" stroke-width=".5"/><path d="M-8.636550307273865,191.330336779356L68.97443771362305,205.4593324661255" fill="none" stroke="#e5bc6a" stroke-width=".5"/><path d="M-8.636550307273865,191.330336779356L-8.636550307273865,160.07714867591858" fill="none" stroke="#e5bc6a" stroke-width=".5"/><path d="M68.97443771362305,205.4593324661255L68.97443771362305,170.50569355487823" fill="none" stroke="#e5bc6a" stroke-width=".5"/><path d="M-8.636550307273865,160.07714867591858L68.97443771362305,170.50569355487823" fill="none" stroke="#e5bc6a" stroke-width=".5"/><path d="M54.89905834197998,170.25415301322937L123.56059074401855,179.63675409555435" fill="none" stroke="#e5bc6a" stroke-width=".5"/><path d="M54.89905834197998,170.25415301322937L54.89905834197998,144.52092051506042" fill="none" stroke="#e5bc6a" stroke-width=".5"/><path d="M123.56059074401855,179.63675409555435L123.56059074401855,151.4461725950241" fill="none" stroke="#e5bc6a" stroke-width=".5"/><path d="M54.89905834197998,144.52092051506042L123.56059074401855,151.4461725950241" fill="none" stroke="#e5bc6a" stroke-width=".5"/><path d="M-8.636550307273865,191.330336779356L54.89905834197998,170.25415301322937" fill="none" stroke="#e5bc6a" stroke-width=".5"/><path d="M68.97443771362305,205.4593324661255L123.56059074401855,179.63675409555435" fill="none" stroke="#e5bc6a" stroke-width=".5"/><path d="M-8.636550307273865,160.07714867591858L54.89905834197998,144.52092051506042" fill="none" stroke="#e5bc6a" stroke-width=".5"/><path d="M68.97443771362305,170.50569355487823L123.56059074401855,151.4461725950241" fill="none" stroke="#e5bc6a" stroke-width=".5"/></svg>